/* XPM */
static char *result[] = {
/* columns rows colors chars-per-pixel */
"32 32 91 1 ",
"  c #E7B102",
". c #E7B103",
"X c #E7B202",
"o c #E7B203",
"O c #E6B105",
"+ c #E7B204",
"@ c #E7B205",
"# c #E6B106",
"$ c #E7B107",
"% c #E7B206",
"& c #E7B207",
"* c #E8B200",
"= c #E9B200",
"- c #E8B201",
"; c #E9B201",
": c #E8B103",
"> c #E8B202",
", c #E9B202",
"< c #E8B203",
"1 c #E9B203",
"2 c #E9B303",
"3 c #E8B204",
"4 c #E9B204",
"5 c #E9B304",
"6 c #E8B205",
"7 c #E9B205",
"8 c #E9B305",
"9 c #E8B206",
"0 c #E8B207",
"q c #E9B406",
"w c #E6B208",
"e c #E7B308",
"r c #E6B20A",
"t c #E6B20B",
"y c #E7B20B",
"u c #E9B308",
"i c #E9B408",
"p c #E9B409",
"a c #E9B50B",
"s c #EAB50A",
"d c #E9B50D",
"f c #EAB60F",
"g c #E9B610",
"h c #EAB610",
"j c #EAB711",
"k c #EAB814",
"l c #EABA1B",
"z c #EBBA1B",
"x c #EBBB1F",
"c c #EBBC24",
"v c #EBBD24",
"b c #EBBC25",
"n c #ECBE2A",
"m c #ECC030",
"M c #ECC031",
"N c #EDC33D",
"B c #EDC43D",
"V c #EEC43F",
"C c #EEC747",
"Z c #EFCB55",
"A c #F0CC59",
"S c #F0CD5B",
"D c #F0CE5E",
"F c #F0CF61",
"G c #F0D065",
"H c #F1D36F",
"J c #F1D473",
"K c #F4DB88",
"L c #F4DC8C",
"P c #F5E19E",
"I c #F6E2A2",
"U c #F6E4A7",
"Y c #F6E4A8",
"T c #F7E7B4",
"R c #F7E8B6",
"E c #F9EDC6",
"W c #F9EEC9",
"Q c #FAF3D7",
"! c #FBF5DF",
"~ c #FCF4DC",
"^ c #FBF6E1",
"/ c #FCF8EA",
"( c #FCF9EE",
") c #FDFBF0",
"_ c #FDFBF2",
"` c #FEFDF9",
"' c #FEFEFC",
"] c #FEFEFE",
"[ c #FFFEFF",
"{ c white",
"} c None",
/* pixels */
"}}}}}}}}}}}}%@6<<6@%}}}}}}}}}}}}",
"}}}}}}}}}%>==========>&}}}}}}}}}",
"}}}}}}}r,==============,t}}}}}}}",
"}}}}}}6==================6}}}}}}",
"}}}}}3====================3}}}}}",
"}}}}3======================3}}}}",
"}}}6========================6}}}",
"}}t==========================y}}",
"}},==========================,}}",
"}&====CDDDDDDDZ5xFFFFFFFFm====e}",
"},===h'{{{{{{{{VP{{{{{{{{E====1}",
"}====a_{{{{{{{'ML{{{{{{{{R=====}",
"9=====glllllllk=2zllllllli=====0",
"6==============================9",
"7====;HKKKS==========vIc=======9",
",====f]{{{~=========b^{!8======4",
",====qQ)))R;=======b^{{U;======4",
"3=====;===========b^{{Y8=======6",
"3================b^{{U8========6",
"+====;AHHHHHHHG8c^{{/JHHHN=====6",
"}====j]{{{{{{{{BI{{{{{{{{W=====}",
"},===s({{{{{{{`nL[{{{{{{{T====,}",
"}@====udddddddp=,dddddddd5====@}",
"}};==========================;}}",
"}}$==========================w}}",
"}}}o========================<}}}",
"}}}}<======================<}}}}",
"}}}}}<====================<}}}}}",
"}}}}}}:==================o}}}}}}",
"}}}}}}}O;==============;#}}}}}}}",
"}}}}}}}}}.;==========-.}}}}}}}}}",
"}}}}}}}}}}}} Xo**.X }}}}}}}}}}}}"
};
