/* XPM */
static char *result[] = {
/* columns rows colors chars-per-pixel */
"64 64 209 2 ",
"   c #E7B100",
".  c #E6B103",
"X  c #E7B103",
"o  c #E5B105",
"O  c #E6B104",
"+  c #E6B105",
"@  c #E5B106",
"#  c #E6B106",
"$  c #E6B007",
"%  c #E6B107",
"&  c #E7B207",
"*  c #E9B101",
"=  c #E9B200",
"-  c #E8B201",
";  c #E9B201",
":  c #E8B102",
">  c #E9B102",
",  c #E8B103",
"<  c #E9B103",
"1  c #EAB102",
"2  c #E8B202",
"3  c #E9B202",
"4  c #E8B302",
"5  c #E8B203",
"6  c #E9B203",
"7  c #E8B204",
"8  c #E8B304",
"9  c #E9B304",
"0  c #E8B205",
"q  c #E9B205",
"w  c #E9B305",
"e  c #EAB204",
"r  c #E8B206",
"t  c #E8B306",
"y  c #E3B008",
"u  c #E2B00A",
"i  c #E3B00A",
"p  c #E2B00B",
"a  c #E3B10B",
"s  c #E5B008",
"d  c #E4B109",
"f  c #E5B109",
"g  c #E6B108",
"h  c #E6B109",
"j  c #E7B109",
"k  c #E7B208",
"l  c #E6B209",
"z  c #E7B209",
"x  c #E4B10A",
"c  c #E4B10B",
"v  c #E5B10B",
"b  c #E4B20B",
"n  c #E7B20A",
"m  c #E6B30A",
"M  c #E7B30A",
"N  c #E6B20B",
"B  c #E7B20B",
"V  c #E6B30B",
"C  c #E7B30B",
"Z  c #E3B10C",
"A  c #E2B20E",
"S  c #E3B20F",
"D  c #E4B20D",
"F  c #E4B30D",
"G  c #E6B20C",
"H  c #E7B30C",
"J  c #E6B20D",
"K  c #E7B30D",
"L  c #E4B20E",
"P  c #E5B20E",
"I  c #E4B30F",
"U  c #E6B20F",
"Y  c #E7B20F",
"T  c #E6B30F",
"R  c #E8B109",
"E  c #E8B208",
"W  c #E8B20A",
"Q  c #E8B20B",
"!  c #E8B30B",
"~  c #E8B40A",
"^  c #E8B40C",
"/  c #E9B50D",
"(  c #E8B50F",
")  c #E3B211",
"_  c #E2B313",
"`  c #E4B110",
"'  c #E4B210",
"]  c #E5B210",
"[  c #E4B211",
"{  c #E6B311",
"}  c #E4B312",
"|  c #E4B313",
" . c #E5B410",
".. c #E3B314",
"X. c #E3B315",
"o. c #E9B510",
"O. c #EAB611",
"+. c #E9B512",
"@. c #E9B612",
"#. c #E9B613",
"$. c #EAB712",
"%. c #EAB613",
"&. c #E9B714",
"*. c #EAB714",
"=. c #EBB715",
"-. c #EAB818",
";. c #EAB819",
":. c #E9B91A",
">. c #EBB81A",
",. c #EAB91B",
"<. c #E9B91C",
"1. c #EABA1C",
"2. c #EABA1F",
"3. c #EBBB20",
"4. c #EBBB21",
"5. c #EABD25",
"6. c #EBBD27",
"7. c #ECBD25",
"8. c #ECBD26",
"9. c #ECBD29",
"0. c #EBBD2C",
"q. c #EBC137",
"w. c #ECC134",
"e. c #ECC136",
"r. c #ECC236",
"t. c #ECC33C",
"y. c #ECC43D",
"u. c #ECC544",
"i. c #EDC645",
"p. c #EDC647",
"a. c #EDC649",
"s. c #EDC74A",
"d. c #EDC74B",
"f. c #EEC94F",
"g. c #EEC851",
"h. c #EECA52",
"j. c #EECF62",
"k. c #F0D168",
"l. c #F1D474",
"z. c #F2D476",
"x. c #F1D67A",
"c. c #F2D67D",
"v. c #F3D781",
"b. c #F1D882",
"n. c #F3D985",
"m. c #F2DA85",
"M. c #F2D986",
"N. c #F4D987",
"B. c #F3DB8A",
"V. c #F2DB8B",
"C. c #F3DB8B",
"Z. c #F4DA89",
"A. c #F2DB8C",
"S. c #F2DB8D",
"D. c #F3DD90",
"F. c #F3DC91",
"G. c #F4DD91",
"H. c #F5DD93",
"J. c #F4DD94",
"K. c #F4E099",
"L. c #F5E4A6",
"P. c #F5E6AD",
"I. c #F6E8B5",
"U. c #F7EAB9",
"Y. c #F7EABC",
"T. c #F7EBBC",
"R. c #F7EBBD",
"E. c #F8E8B8",
"W. c #F8E8B9",
"Q. c #F7EBC1",
"!. c #F7ECC4",
"~. c #F8ECC2",
"^. c #F8ECC3",
"/. c #F8EDC6",
"(. c #F9EFCE",
"). c #FAF1D2",
"_. c #F9F3D6",
"`. c #FAF3DA",
"'. c #F9F4DC",
"]. c #FAF4DC",
"[. c #FBF4DC",
"{. c #FAF4DD",
"}. c #FAF5DF",
"|. c #FAF7E2",
" X c #FBF6E6",
".X c #FCF8E7",
"XX c #FDFBF3",
"oX c #FDFCF5",
"OX c #FCFDF6",
"+X c #FCFDF8",
"@X c #FDFDF8",
"#X c #FEFDF9",
"$X c #FEFDFB",
"%X c #FDFEFA",
"&X c #FCFEFC",
"*X c #FDFEFC",
"=X c #FDFEFD",
"-X c #FEFEFC",
";X c #FEFEFD",
":X c #FFFEFD",
">X c #FEFFFD",
",X c #FFFFFD",
"<X c #FEFEFE",
"1X c #FFFEFE",
"2X c #FEFFFE",
"3X c #FFFFFE",
"4X c #FEFFFF",
"5X c white",
"6X c None",
/* pixels */
"6X6X6X6X6X6X6X6X6X6X6X6X6X6X6X6X6X6X6X6X6X6X6X6X6X6XL N V n h 7 7 h n V N ' 6X6X6X6X6X6X6X6X6X6X6X6X6X6X6X6X6X6X6X6X6X6X6X6X6X6X",
"6X6X6X6X6X6X6X6X6X6X6X6X6X6X6X6X6X6X6X6X6X6XA N 3 = = = = = = = = = = = = = = 6 N L 6X6X6X6X6X6X6X6X6X6X6X6X6X6X6X6X6X6X6X6X6X6X",
"6X6X6X6X6X6X6X6X6X6X6X6X6X6X6X6X6X6X6X6Xk ; = = = = = = = = = = = = = = = = = = = = ; j 6X6X6X6X6X6X6X6X6X6X6X6X6X6X6X6X6X6X6X6X",
"6X6X6X6X6X6X6X6X6X6X6X6X6X6X6X6X6X` 0 ; ; = = = = = = = = = = = = = = = = = = = = = = ; - 0 ) 6X6X6X6X6X6X6X6X6X6X6X6X6X6X6X6X6X",
"6X6X6X6X6X6X6X6X6X6X6X6X6X6X6X6Xr ; = = = = = = = = = = = = = = = = = = = = = = = = = = = = ; r 6X6X6X6X6X6X6X6X6X6X6X6X6X6X6X6X",
"6X6X6X6X6X6X6X6X6X6X6X6X6X6XP ; = = = = = = = = = = = = = = = = = = = = = = = = = = = = = = = = ; P 6X6X6X6X6X6X6X6X6X6X6X6X6X6X",
"6X6X6X6X6X6X6X6X6X6X6X6X6X0 ; = = = = = = = = = = = = = = = = = = = = = = = = = = = = = = = = = = ; 0 6X6X6X6X6X6X6X6X6X6X6X6X6X",
"6X6X6X6X6X6X6X6X6X6X6X_ 3 = = = = = = = = = = = = = = = = = = = = = = = = = = = = = = = = = = = = = = 6 ..6X6X6X6X6X6X6X6X6X6X6X",
"6X6X6X6X6X6X6X6X6X6XS 3 = = = = = = = = = = = = = = = = = = = = = = = = = = = = = = = = = = = = = = = = ; [ 6X6X6X6X6X6X6X6X6X6X",
"6X6X6X6X6X6X6X6X6XU 3 = = = = = = = = = = = = = = = = = = = = = = = = = = = = = = = = = = = = = = = = = = 3 { 6X6X6X6X6X6X6X6X6X",
"6X6X6X6X6X6X6X6X] 3 = = = = = = = = = = = = = = = = = = = = = = = = = = = = = = = = = = = = = = = = = = = = 3 } 6X6X6X6X6X6X6X6X",
"6X6X6X6X6X6X6X| > = = = = = = = = = = = = = = = = = = = = = = = = = = = = = = = = = = = = = = = = = = = = = = ; X.6X6X6X6X6X6X6X",
"6X6X6X6X6X6X6X3 = = = = = = = = = = = = = = = = = = = = = = = = = = = = = = = = = = = = = = = = = = = = = = = = 3 6X6X6X6X6X6X6X",
"6X6X6X6X6X6X0 = = = = = = = = = = = = = = = = = = = = = = = = = = = = = = = = = = = = = = = = = = = = = = = = = = r 6X6X6X6X6X6X",
"6X6X6X6X6XP ; = = = = = = = = = = = = = = = = = = = = = = = = = = = = = = = = = = = = = = = = = = = = = = = = = = ; U 6X6X6X6X6X",
"6X6X6X6X6X; = = = = = = = = = = = = = = = = = = = = = = = = = = = = = = = = = = = = = = = = = = = = = = = = = = = = ; 6X6X6X6X6X",
"6X6X6X6Xr = = = = = = = = = = = = = = = = = = = = = = = = = = = = = = = = = = = = = = = = = = = = = = = = = = = = = = r 6X6X6X6X",
"6X6X6X] ; = = = = = = = = = = = = = = = = = = = = = = = = = = = = = = = = = = = = = = = = = = = = = = = = = = = = = = ; } 6X6X6X",
"6X6X6X0 = = = = = = = = = = = = = = = = = = = = = = = = = = = = = = = = = = = = = = = = = = = = = = = = = = = = = = = = t 6X6X6X",
"6X6X6X- = = = = = = = ; j.U.T.T.T.T.T.T.T.T.T.T.T.T.T.T.Y.K.o.= < x.Q.~.~.~.~.~.~.~.~.~.~.~.~.~.~.~.L.<.= = = = = = = = 2 6X6X6X",
"6X6XE ; = = = = = = = >.+X3X3X3X3X3X3X3X3X3X3X3X3X3X3X3X3X2Xz.= q.-X4X4X4X4X4X4X4X4X4X4X4X4X4X4X4X4X2XZ.= = = = = = = = ; Q 6X6X",
"6X6X; = = = = = = = = 6.=X5X5X5X5X5X5X5X5X5X5X5X5X5X5X5X5X4XN.= i.5X5X5X5X5X5X5X5X5X5X5X5X5X5X5X5X5X5XG.= = = = = = = = = ; 6X6X",
"6XI = = = = = = = = = 5.=X5X5X5X5X5X5X5X5X5X5X5X5X5X5X5X5X5Xn.= u.4X5X5X5X5X5X5X5X5X5X5X5X5X5X5X5X5X5XD.= = = = = = = = = =  .6X",
"6Xm = = = = = = = = = w (.2X2X2X2X2X2X2X2X2X2X2X2X2X2X2X3XoXy.= O.[.3X2X2X2X2X2X2X2X2X2X2X2X2X2X2X2X@Xg.; = = = = = = = = = G 6X",
"6X6 = = = = = = = = = = ^ w.r.r.r.r.r.r.r.r.r.r.r.r.r.r.r.,.3 = = / e.r.r.r.r.r.r.r.r.r.r.r.r.r.r.r.2.> = = = = = = = = = = 6 6X",
"6X; = = = = = = = = = = = = = = = = = = = = = = = = = = = = = = = = = = = = = = = = = = = = = = = = = = = = = = = = = = = = = 6X",
"T = = = = = = = = = = = = = = = = = = = = = = = = = = = = = = = = = = = = = = = = = = = = = = = = = = = = = = = = = = = = = = { ",
"C = = = = = = = = = = = = = = = = = = = = = = = = = = = = = = = = = = = = = = = = = = = - ; = = = = = = = = = = = = = = = = = H ",
"B = = = = = = = = = = ; ; $.=.=.=.=.=.=./ ; = = = = = = = = = = = = = = = = = = = = = 4 a.p.3 = = = = = = = = = = = = = = = = T ",
"W = = = = = = = = = = 6 P.%X&X&X&X&X&X&XOXk.- = = = = = = = = = = = = = = = = = = = 5 S.;X:XV.3 = = = = = = = = = = = = = = = ! ",
"k = = = = = = = = = = 1.*X5X5X5X5X5X5X5X5XW.= = = = = = = = = = = = = = = = = = = 5 A.-X5X5X3XM.= = = = = = = = = = = = = = = n ",
"= = = = = = = = = = = 4.=X5X5X5X5X5X5X5X5XW.= = = = = = = = = = = = = = = = = = 5 A.;X5X5X5X5X#X+.= = = = = = = = = = = = = = e ",
"= = = = = = = = = = = -.$X5X5X5X5X5X5X5X5XE.2 = = = = = = = = = = = = = = = = 5 A.;X5X5X5X5X5X^.q = = = = = = = = = = = = = = e ",
"& = = = = = = = = = = ; b.}.|.|.|.|.|.|._.s.; = = = = = = = = = = = = = = = 7 V.>X5X5X5X5X5X/.&.= = = = = = = = = = = = = = ; n ",
"R = = = = = = = = = = = ; ; ; ; ; ; ; ; = - = = = = = = = = = = = = = = = 8 C.;X5X5X5X5X5X/.&.= = = = = = = = = = = = = = = = M ",
"n = = = = = = = = = = = = = = = = = = = = = = = = = = = = = = = = = = = 7 C.<X5X5X5X5X5X/.#.; = = = = = = = = = = = = = = = = K ",
"n = = = = = = = = = = = = = = = = = = = = = = = = = = = = = = = = = = 7 C.<X5X5X5X5X3X/.#.- = = = = = = = = = = = = = = = = = C ",
"J = = = = = = = = = = = = = = = = = = = = = = = = = = = = = = = = = 7 B.2X5X5X5X5X,X/.@.- = = = = = = = = = = = = = = = = = = Y ",
"6X= = = = = = = = = = = 1 3 * ; * ; * ; * ; * ; * ; * ; ; 3 = = = 7 B.>X5X5X5X5X3X/.#.3 * ; * ; * ; 6 ; = = = = = = = = = = = 6X",
"6X3 = = = = = = = = = 6 m.`.].].].].].].].].].].].].].].{.I.*.= 3 V.>X5X5X5X5X5X3X X'.].].].].].].].!.0.= = = = = = = = = = 6 6X",
"6Xz = = = = = = = = = 3.&X5X5X5X5X5X5X5X5X5X5X5X5X5X5X5X5X3Xl.= t.-X5X5X5X5X5X5X5X5X5X5X5X5X5X5X5X5X2XF.; = = = = = = = = = z 6X",
"6Xv = = = = = = = = = 8.=X5X5X5X5X5X5X5X5X5X5X5X5X5X5X5X5X2Xv.= h.5X5X5X5X5X5X5X5X5X5X5X5X5X5X5X5X5X5XJ.= = = = = = = = = ; F 6X",
"6X6X; = = = = = = = = 7.=X5X5X5X5X5X5X5X5X5X5X5X5X5X5X5X5X3Xc.= f.2X5X5X5X5X5X5X5X5X5X5X5X5X5X5X5X5X5XH.; = = = = = = = = ; 6X6X",
"6X6Xg = = = = = = = = 9 R.<X1X1X1X1X1X1X1X1X1X1X1X1X1X1X1X.X9.= %.).<X1X1X1X1X1X1X1X1X1X1X1X1X1X1X1XXXd.; = = = = = = = = j 6X6X",
"6X6X6X- = = = = = = = ; q ;.:.:.:.:.:.:.:.:.:.:.:.:.:.:.:.~ = = = t :.:.:.:.:.:.:.:.:.:.:.:.:.:.:.:.( ; = = = = = = = = 2 6X6X6X",
"6X6X6X5 = = = = = = = = = = = = = = = = = = = = = = = = = = = = = = = = = = = = = = = = = = = = = = = = = = = = = = = = 5 6X6X6X",
"6X6X6Xb ; = = = = = = = = = = = = = = = = = = = = = = = = = = = = = = = = = = = = = = = = = = = = = = = = = = = = = = ; D 6X6X6X",
"6X6X6X6X7 = = = = = = = = = = = = = = = = = = = = = = = = = = = = = = = = = = = = = = = = = = = = = = = = = = = = = = 7 6X6X6X6X",
"6X6X6X6X6X3 = = = = = = = = = = = = = = = = = = = = = = = = = = = = = = = = = = = = = = = = = = = = = = = = = = = = 2 6X6X6X6X6X",
"6X6X6X6X6Xg ; = = = = = = = = = = = = = = = = = = = = = = = = = = = = = = = = = = = = = = = = = = = = = = = = = = - l 6X6X6X6X6X",
"6X6X6X6X6X6X5 = = = = = = = = = = = = = = = = = = = = = = = = = = = = = = = = = = = = = = = = = = = = = = = = = = , 6X6X6X6X6X6X",
"6X6X6X6X6X6X6X2 = = = = = = = = = = = = = = = = = = = = = = = = = = = = = = = = = = = = = = = = = = = = = = = = 6 6X6X6X6X6X6X6X",
"6X6X6X6X6X6X6Xa 3 = = = = = = = = = = = = = = = = = = = = = = = = = = = = = = = = = = = = = = = = = = = = = = 3 Z 6X6X6X6X6X6X6X",
"6X6X6X6X6X6X6X6Xd ; = = = = = = = = = = = = = = = = = = = = = = = = = = = = = = = = = = = = = = = = = = = = ; c 6X6X6X6X6X6X6X6X",
"6X6X6X6X6X6X6X6X6Xx ; = = = = = = = = = = = = = = = = = = = = = = = = = = = = = = = = = = = = = = = = = = ; f 6X6X6X6X6X6X6X6X6X",
"6X6X6X6X6X6X6X6X6X6Xd 3 = = = = = = = = = = = = = = = = = = = = = = = = = = = = = = = = = = = = = = = = 3 i 6X6X6X6X6X6X6X6X6X6X",
"6X6X6X6X6X6X6X6X6X6X6Xu > = = = = = = = = = = = = = = = = = = = = = = = = = = = = = = = = = = = = = = 2 p 6X6X6X6X6X6X6X6X6X6X6X",
"6X6X6X6X6X6X6X6X6X6X6X6X6X, 3 = = = = = = = = = = = = = = = = = = = = = = = = = = = = = = = = = = ; , 6X6X6X6X6X6X6X6X6X6X6X6X6X",
"6X6X6X6X6X6X6X6X6X6X6X6X6X6X% ; = = = = = = = = = = = = = = = = = = = = = = = = = = = = = = = = 3 % 6X6X6X6X6X6X6X6X6X6X6X6X6X6X",
"6X6X6X6X6X6X6X6X6X6X6X6X6X6X6X6X, ; = = = = = = = = = = = = = = = = = = = = = = = = = = = = ; X 6X6X6X6X6X6X6X6X6X6X6X6X6X6X6X6X",
"6X6X6X6X6X6X6X6X6X6X6X6X6X6X6X6X6Xy : = ; = = = = = = = = = = = = = = = = = = = = = = ; = : y 6X6X6X6X6X6X6X6X6X6X6X6X6X6X6X6X6X",
"6X6X6X6X6X6X6X6X6X6X6X6X6X6X6X6X6X6X6X6X. ; ; = = = = = = = = = = = = = = = = = ; ; ; . 6X6X6X6X6X6X6X6X6X6X6X6X6X6X6X6X6X6X6X6X",
"6X6X6X6X6X6X6X6X6X6X6X6X6X6X6X6X6X6X6X6X6X6X$ + ; = = = = = = = = = = = = = = ; O $ 6X6X6X6X6X6X6X6X6X6X6X6X6X6X6X6X6X6X6X6X6X6X",
"6X6X6X6X6X6X6X6X6X6X6X6X6X6X6X6X6X6X6X6X6X6X6X6X6X6Xs o @ +   = =   # @ + s 6X6X6X6X6X6X6X6X6X6X6X6X6X6X6X6X6X6X6X6X6X6X6X6X6X6X"
};
