/* XPM */
static char *result[] = {
/* columns rows colors chars-per-pixel */
"16 16 52 1 ",
"  c #E9B200",
". c #E8B201",
"X c #E9B201",
"o c #E8B102",
"O c #E8B103",
"+ c #E8B202",
"@ c #E9B202",
"# c #E9B302",
"$ c #E8B203",
"% c #E9B203",
"& c #E8B204",
"* c #E9B304",
"= c #E8B205",
"- c #E9B305",
"; c #E9B407",
": c #E9B408",
"> c #E9B409",
", c #E9B50B",
"< c #EAB60E",
"1 c #EBB916",
"2 c #EBBA1B",
"3 c #EBBB20",
"4 c #ECBD24",
"5 c #ECBE29",
"6 c #ECBF2B",
"7 c #ECC02E",
"8 c #ECC02F",
"9 c #EDC130",
"0 c #EDC132",
"q c #EDC237",
"w c #EDC339",
"e c #EFC84A",
"r c #EFC84B",
"t c #EFC94E",
"y c #F2D472",
"u c #F3D678",
"i c #F5DE95",
"p c #F6DF98",
"a c #F6E09B",
"s c #F7E5A9",
"d c #F8EBBD",
"f c #F9ECC1",
"g c #F9EDC4",
"h c #FAEFCA",
"j c #FAEFCB",
"k c #FCF5DE",
"l c #FCF5DF",
"z c #FEFDF7",
"x c #FEFDFA",
"c c #FEFEFB",
"v c white",
"b c None",
/* pixels */
"bbbbb&++++&bbbbb",
"bbb=        =bbb",
"bb&          &bb",
"b=            =b",
"b  5888139994  b",
"& ;cvvvahvvvk  &",
"+  ,<<<-:<<<>  %",
"@ *dgt    rsX  @",
"@ @yu7   rzi   @",
"+  0qqq2ezfw6  @",
"$ ;xvvvpjvvvl  $",
"b  -;;;#*;;;*  b",
"b$            $b",
"bb+          +bb",
"bbbo        Obbb",
"bbbbbo....+bbbbb"
};
