/* XPM */
static char *result[] = {
/* columns rows colors chars-per-pixel */
"128 128 67 1 ",
"  c #DFAE0D",
". c #DFB106",
"X c #DEB10A",
"o c #DCAF13",
"O c #DEB314",
"+ c #DEB41B",
"@ c #E5AF03",
"# c #E2AE0A",
"$ c #E6B204",
"% c #E9B200",
"& c #E4B20B",
"* c #E9B20A",
"= c #E2AF15",
"- c #E4B314",
"; c #E9B413",
": c #E3B31A",
"> c #E9B61C",
", c #E9BA1F",
"< c #DEB423",
"1 c #E1B422",
"2 c #E5BB22",
"3 c #EBBB26",
"4 c #E5BD29",
"5 c #ECBD2B",
"6 c #EABF33",
"7 c #EBBF3A",
"8 c #E7C12D",
"9 c #EAC034",
"0 c #E7C23D",
"q c #EBC33E",
"w c #E7C646",
"e c #EAC443",
"r c #EEC74C",
"t c #EDC84D",
"y c #E9C750",
"u c #EBC851",
"i c #EDCD5D",
"p c #EECF63",
"a c #EDD064",
"s c #EED26C",
"d c #F0D46E",
"f c #F2D273",
"g c #F1D77C",
"h c #EFD884",
"j c #F0D780",
"k c #F3DA86",
"l c #F0DB88",
"z c #F2DE95",
"x c #F2DD98",
"c c #F4E29D",
"v c #F4E2A2",
"b c #F4E4A9",
"n c #F5E6B1",
"m c #F4E8B5",
"M c #F4EABA",
"N c #F7EEC6",
"B c #F7EFC9",
"V c #F8EFCA",
"C c #F7F0CA",
"Z c #FAF3D2",
"A c #FAF4DB",
"S c #FBF6E2",
"D c #FBF8E6",
"F c #FCF9EC",
"G c #FDFCF4",
"H c #FFFFFE",
"J c None",
/* pixels */
"JJJJJJJJJJJJJJJJJJJJJJJJJJJJJJJJJJJJJJJJJJJJJJJJJJJJJJJJ::---&**$@;=-=::JJJJJJJJJJJJJJJJJJJJJJJJJJJJJJJJJJJJJJJJJJJJJJJJJJJJJJJJ",
"JJJJJJJJJJJJJJJJJJJJJJJJJJJJJJJJJJJJJJJJJJJJJJJJJJ+-&&%%$%%$%%$%%%$%%%%%*%*--+JJJJJJJJJJJJJJJJJJJJJJJJJJJJJJJJJJJJJJJJJJJJJJJJJJ",
"JJJJJJJJJJJJJJJJJJJJJJJJJJJJJJJJJJJJJJJJJJJJJJO:&%%%%%%%%%%%%%%%%%%%%%%%%%%%%%%%-+JJJJJJJJJJJJJJJJJJJJJJJJJJJJJJJJJJJJJJJJJJJJJJ",
"JJJJJJJJJJJJJJJJJJJJJJJJJJJJJJJJJJJJJJJJJJJ:&&%%%%%%%%%%%%%%%%%%%%%%%%%%%%%%%%%%%*$&:JJJJJJJJJJJJJJJJJJJJJJJJJJJJJJJJJJJJJJJJJJJ",
"JJJJJJJJJJJJJJJJJJJJJJJJJJJJJJJJJJJJJJJJ:-%%$%%%%%%%%%%%%%%%%%%%%%%%%%%%%%%%%%%%%%%%%$&,JJJJJJJJJJJJJJJJJJJJJJJJJJJJJJJJJJJJJJJJ",
"JJJJJJJJJJJJJJJJJJJJJJJJJJJJJJJJJJJJJJ>*%%%%%%%%%%%%%%%%%%%%%%%%%%%%%%%%%%%%%%%%%%%%%%%%$:JJJJJJJJJJJJJJJJJJJJJJJJJJJJJJJJJJJJJJ",
"JJJJJJJJJJJJJJJJJJJJJJJJJJJJJJJJJJJJ-%%%%%%%%%%%%%%%%%%%%%%%%%%%%%%%%%%%%%%%%%%%%%%%%%%$%$%-JJJJJJJJJJJJJJJJJJJJJJJJJJJJJJJJJJJJ",
"JJJJJJJJJJJJJJJJJJJJJJJJJJJJJJJJJJ-$%%%%%%%%%%%%%%%%%%%%%%%%%%%%%%%%%%%%%%%%%%%%%%%%%%%%%%%%*-JJJJJJJJJJJJJJJJJJJJJJJJJJJJJJJJJJ",
"JJJJJJJJJJJJJJJJJJJJJJJJJJJJJJJJO$%%$%%%%%%%%%%%%%%%%%%%%%%%%%%%%%%%%%%%%%%%%%%%%%%%%%%%%%%%%%$-JJJJJJJJJJJJJJJJJJJJJJJJJJJJJJJJ",
"JJJJJJJJJJJJJJJJJJJJJJJJJJJJJJ1&%%%%%%%%%%%%%%%%%%%%%%%%%%%%%%%%%%%%%%%%%%%%%%%%%%%%%%%%%%%%%$$%-<JJJJJJJJJJJJJJJJJJJJJJJJJJJJJJ",
"JJJJJJJJJJJJJJJJJJJJJJJJJJJJJ=%%%%%%%%%%%%%%%%%%%%%%%%%%%%%%%%%%%%%%%%%%%%%%%%%%%%%%%%%%%%%%%%%%%%-JJJJJJJJJJJJJJJJJJJJJJJJJJJJJ",
"JJJJJJJJJJJJJJJJJJJJJJJJJJJ1*$%%%%%%%%%%%%%%%%%%%%%%%%%%%%%%%%%%%%%%%%%%%%%%%%%%%%%%%%%%%%%%%%%%%%%*1JJJJJJJJJJJJJJJJJJJJJJJJJJJ",
"JJJJJJJJJJJJJJJJJJJJJJJJJJ-%%%%%%%%%%%%%%%%%%%%%%%%%%%%%%%%%%%%%%%%%%%%%%%%%%%%%%%%%%%%%%%%%%%%%%%%$%:JJJJJJJJJJJJJJJJJJJJJJJJJJ",
"JJJJJJJJJJJJJJJJJJJJJJJJJ&%%%%%%%%%%%%%%%%%%%%%%%%%%%%%%%%%%%%%%%%%%%%%%%%%%%%%%%%%%%%%%%%%%%%%$%%%%%%&JJJJJJJJJJJJJJJJJJJJJJJJJ",
"JJJJJJJJJJJJJJJJJJJJJJJ<*%%%%%%%%%%%%%%%%%%%%%%%%%%%%%%%%%%%%%%%%%%%%%%%%%%%%%%%%%$%%%%$%%%%%%%%%%%%%%%*<JJJJJJJJJJJJJJJJJJJJJJJ",
"JJJJJJJJJJJJJJJJJJJJJJ:%%%%%%%%%%%%%%%%%%%%%%%%%%%%%%%%%%%%%%%%%%%%%%%%%%%%%%%%%%%%%%%%%%%%%%%%%%%%%%%%%%1JJJJJJJJJJJJJJJJJJJJJJ",
"JJJJJJJJJJJJJJJJJJJJJ:%%%%%%%%%%%%%%%%%%%%%%%%%%%%%%%$%%%%%%%%%%%%%%%%%%%%%%%%%%%%%%%%%%%%%%%%%%%%%%%%%%%%:JJJJJJJJJJJJJJJJJJJJJ",
"JJJJJJJJJJJJJJJJJJJJ-$%%%%%%%%%%%%%%%%%%%%%%%%%%%%%%%%%%%%%%%%%%%%%%%%%%%%%%%%%%%%%%%%%%%%%%%%%%%%%%%%%%%%%-JJJJJJJJJJJJJJJJJJJJ",
"JJJJJJJJJJJJJJJJJJJ-%%%%%%%%%%%%%%%%%%%%%%%%%%%%%%%%%%%%%%%%%%%%%%%%%%%%%%%%%%%%%%%%%%%%%%%%%%%%%%%%%%%%%%%*-JJJJJJJJJJJJJJJJJJJ",
"JJJJJJJJJJJJJJJJJJ-%%%%%%%%%%%%%%%%%%%%%%%%%%%%%%%%%%%%%%%%%%%%%%%%%%%%%%%%%%%%%%%%%%%%%%%%%%%%%%%%%%%%%%%$%%-JJJJJJJJJJJJJJJJJJ",
"JJJJJJJJJJJJJJJJJ-*%%%%%%%%%%%%%%%%%%%%%%%%%%%%%%%%%%%%%%%%%%%%%%%%%%%%%%%%%%%%%%%%%%%%%%%%%%%%%%%%%%%%%%%%%%*-JJJJJJJJJJJJJJJJJ",
"JJJJJJJJJJJJJJJJ:%%%%%%%%%%%%%%%%%%%%%%%%%%%%%%%%%%%%%%%%%%%%%%%%%%%%%%%%%%%%%%%%%%%%%%%%%%%%%%%%%%%%%%%%%%%%%%:JJJJJJJJJJJJJJJJ",
"JJJJJJJJJJJJJJJ:%%%%%%%%%%%%%%%%%%%%%%%%%%%%%%%%%%%%%%%%%%%%%%%%%%%%%%%%%%%%%%%%%%%%%%%%%%%%%%%%%%%%%%%%%%%%%%%%+JJJJJJJJJJJJJJJ",
"JJJJJJJJJJJJJJ<%%%%%%%%%%%%%%%%%%%%%%%%%%%%%%%%%%%%%%%%%%%%%%%%%%%%%%%%%%%%%%%%%%%%%%%%%%%%%%%%%%%%%%%%%%%%%%%%%%<JJJJJJJJJJJJJJ",
"JJJJJJJJJJJJJJ*%%%%%%%%%%%%%%%%%%%%%%%%%%%%%%%%%%%%%%%%%%%%%%%%%%%%%%%%%%%%%%%%%%%%%%%%%%%%%%%%%%%%%%%%%%%%%%%%%%*JJJJJJJJJJJJJJ",
"JJJJJJJJJJJJJ*%%%%%%%%%%%%%%%%%%%%%%%%%%%%%%%%%$%%%%%%%%%%%%%%%%%%%%%%%%%%%%%%%%%%%%%%%%%%%%%%%%%%%%%%%%%%%%%%%%%%&JJJJJJJJJJJJJ",
"JJJJJJJJJJJJ:%%%%%%%%%%%%%%%%%%%%%%%%%%%%%%%%%%%%%%%%%%%%%%%%%%%%%%%%%%%%%%%%%%%%%%%%%%%%%%%%%%%%%%%%%%%%%%%%%%%%%%:JJJJJJJJJJJJ",
"JJJJJJJJJJJ1%%%%%%%%%%%%%%%%%%%%%%%%%%%%%%%%%%%%%%%%%%%%%%%%%%%%%%%%%%$%%%%%%%%%%%%%%%%%%%%%%%%%%%%%%%%%%%%%%%%%%%%%1JJJJJJJJJJJ",
"JJJJJJJJJJJ&$%%%%%%%%%%%%%%%%%%%%%%%%%%%%%%%%%%%%%%%%%%%%%%%%%%%%%%%%%%%%%%%%%%%%%%%%%%%%%%%%%%%%%%%%%%%%%%%%%%%%%%%*JJJJJJJJJJJ",
"JJJJJJJJJJ-%%%%%%%%%%%%%%%%%%%%%%%%%%%%%%%%%%%%%%%%%%%%%%%%%%%%%%%%%%%%%%%%%%%%%%%%%%%%%%%%%%%%%%%%%%%%%%%%%%%%%%%%%$:JJJJJJJJJJ",
"JJJJJJJJJ1%%%%%%%%%%%%%%%%%%%%%%%%%%%%%%%%%%%%%%%%%%%%%%%%%%%%%%%%%%%%%%%%%%%%%%%%%%%%%%%%%%%%%%%%%%%%%%%%%%%%%%%%%%%%4JJJJJJJJJ",
"JJJJJJJJJ&%%%%%%%%%%%%%%%%%%%%%%%%%%%%%%%%%%%%%%%%%%%%%%%%%%%%%%%%%%%%%%%%%%%%%%%%%%%%%%%%%%%%%%%%%%%%%%%%%%%%%%%%%%%%-JJJJJJJJJ",
"JJJJJJJJ-%%%%%%%%%%%%%%%%%%%%%%%%%%%%%%%%%%%%%%%%%%%%%%%%%%%%%%%%%%%%%%%%%%%%%%%%%%%%%%%%%%%%%%%%%%%%%%%%%%%%%%%%%%%%%%:JJJJJJJJ",
"JJJJJJJJ%%%%%%%%%%%%%%%%%%%%%%%%%%%%%%%%%%%%%%%%%%%%%%%%%%%%%%%%%%%%%%%%%%%%%%%%%%%%%%%%%%%%%%%%%%%%%%%%%%%%%%%%%%%%%%%$JJJJJJJJ",
"JJJJJJJ:%%%%%%%%%%%%%%%%%%%%%%%%%%%%%%%%%%%%%%%%%%%%%%%%%%%%%%%%%%%%%%%%%%%%%%%%%%%%%%%%%%%%%%%%%%%%%%%%%%%%%%%%%%%%%%%%:JJJJJJJ",
"JJJJJJJ*%%%%%%%%%%%%%%%%%%%%%%%%%%%%%%%%%%%%%%%%%%%%%%%%%%%%%%%%%%%%%%%%%%%%%%%%%%%%%%%%%%%%%%%%%%%%%%%%%%%%%%%%%%%%%%%$$JJJJJJJ",
"JJJJJJ:%%%%%%%%%%%%%%%%%%%%%%%%%%%%%%%$%%%$$%%%%%%%%%%%%%%%%%$%%%%%%%%%%%%%%%%%%%%%%%%%%%%%%%%%%%%%%%%%%%%%%%%%%%%%%%%%%$>JJJJJJ",
"JJJJJJ%%%%%%%%%%%%%%%%%%%%%%%%%%%%$$%%$$%%%$%%%%%$%%%%%%%%$$%%%%%%%%%%%%%%%%%%%%%%%%%%%%%%%%%%%%%%%%%%%%%%%%%%%%%%%%%%%%%%JJJJJJ",
"JJJJJ-%%%%%%%%%%%%%%%%%%%9sgggggggggggggggggggggggggggggggp:%%%%$%$rhlkkllkkllkkllkklkkkllkkllkkkkkkg9%%%%%%%%%%%%%%%%%%%$-JJJJJ",
"JJJJJ*%%%%%%%%%%%%%%%%%%aGHHHHGHHHGHHHGHHHHHHGHHHHHGHHHHHHHSq%%%*%vGGHHHHGHHGHHHHGHHGHHHHGHHGHHHHHHHGGa*%%%%%%%%%%%%%%%%%%*JJJJJ",
"JJJJ:%%%%%%%%%%%%$%%%%%>DHHHHHHHHHHHHHHHHHHHHHHHHHHHHHHHHHHHV&%%$uGHHHHHHHHHHHHHHHHHHHHHHHHHHHHHHHHHHHD-%%%%%%%%%%%%%%%%%%%2JJJJ",
"JJJJ-%%%%%%%%%%%%%%%%%%rGHHHHHHHHHHHHHHHHHHHHHHHHHHHHHHHHHHHG;%%%kHHHHHHHHHHHHHHHHHHHHHHHHHHHHHHHHHHHHH3%%%%%%%%%%%%%%%%%%%-JJJJ",
"JJJJ%%%%%%%%%%%%%%%%%%%uHHHHHHHHHHHHHHHHHHHHHHHHHHHHHHHHHHHHH;%%@lHHHHHHHHHHHHHHHHHHHHHHHHHHHHHHHHHHHHH3%%%%%%%%%%%%%%%%%%%$JJJJ",
"JJJ:%%%%%%%%%%%%%%%%%%%tHHHHHHHHHHHHHHHHHHHHHHHHHHHHHHHHHHHHH;%%%lHHHHHHHHHHHHHHHHHHHHHHHHHHHHHHHHHHHHH3%%%%%%%%%%%%%%%%%%%%:JJJ",
"JJJ&%%%%%%%%%%%%%%%%%%%tGHHHHHHHHHHHHHHHHHHHHHHHHHHHHHHHHHHHG;%%%lHHHHHHHHHHHHHHHHHHHHHHHHHHHHHHHHHHHHH3%%%%%%%%%%%%%%%%%%%%;JJJ",
"JJJ*%%%%%%%%%%%%%%%%%%%eHHHHHHHHHHHHHHHHHHHHHHHHHHHHHHHHHHHHG;%%%hHHHHHHHHHHHHHHHHHHHHHHHHHHHHHHHHHHHHG3%%%%%%%%%%%%%%%%%%%%%JJJ",
"JJO%%%%%%%%%%%%%%%%%%%$-FHHHHHHHHHHHHHHHHHHHHHHHHHHHHHHHHHHHM*%%%eHHHHHHHHHHHHHHHHHHHHHHHHHHHHHHHHHHHHS-%%%%%%%%%%%%%%%%%%%%%+JJ",
"JJ-$%%%%%%%%%%%%%%%%%%$$iFHHHHHHHHHHHHHHHHHHHHHHHHHHHHHHHHHA6%%%%%jGHHHHHHHHHHHHHHHHHHHHHHHHHHHHHHHHHDt%%%%%%%%%%%%%%%%%%%%%%:JJ",
"JJ*%%%%%%%%%%%%%%%%%%%%%%4asssdsssdsssssssssssdssssssfssssi;%%%%%%*4ddsssssssfssssssssddsssssssfsdsdp>*%%%%%%%%%%%%%%%%%%%%%%*JJ",
"JJ%%%%%%%%%%%%%%%%%%%%%%%%%%%%$%%%%%%%%%%%%%%%%%%%%%%%%%%%%%%%%%%%%%%%%%%%%%%%%%%%%%%%%%%%%%%%%%%%%%%%%%%%%%%%%%%%%%%%%%%%%%%%JJ",
"J-%%%%%%%%%%%%%%%%%%%%%%%%%%%%%%%%%%%%%%%%%%%%%%%%%%%%%%%%%%%%%%%%%%%%%%%%%%%%%%%%%%%%%%%%%%%%%%%%%%%%%%%%%%%%%%%%%%%%%%%%%%%%:J",
"J-%%%%%%%%%%%%%%%%%%%%%%%%%%%%%%%%%%%%%%%%%%%%%%%%%%%%%%%%%%%%%%%%%%%%%%%%%%%%%%%%%%%%%%%%%%%%%%%%%%%%%%%%%%%%%%%%%%%%%%%%%%%%>J",
"J&%%%%%%%%%%%%%%%%%%%%%%%%%%%%%%%%%%%%%%%%%%%%%%%%%%%%%%%%%%%%%%%%%%%%%%%%%%%%%%%%%%%%%%%%%%%%%%%%%%%%%%%%%%%%%%%%%%%%%%%%%%%$&J",
"J*%%%%%%%%%%%%%%%%%%%%%%%%%%%%%%%%%%%%%%%%%%%%%%%%%%%%%%%%%%%%%%%%%%%%%%%%%%%%%%%%%%%%%%%%%%%%%%%%%%%%%%%%%%%%%%%%%%%%%%%%%%%%*J",
"J%%%%%%%%%%%%%%%%%%%%%%%%%%%%%%%%%%%%%%%%%%%%%%%%%%%%%%%%%%%%%%%%%%%%%%%%%%%%%%%%%%%%%%%%%%%%%%%%%%%%%%%%%%%%%%%%%%%%%%%%%%%%%$J",
"J*%%%%%%%%%%%%%%%%%%%%%%%%%%%%%%%%%%%%%%%%%%%%%%%%%%%%%%%%%%%%%%%%%%%%%%%%%%%%%%%%%%%%%%%$%%%%%%%%%%%%%%%%%%%%%%%%%%%%%%%%%%%%$J",
":$%%%%%%%%%%%%%%%%%%%%%%%%%%%%%%%%%%%%%%%$%%%%%%%%%%%%%%%%%%%%%%%%%%%%%%%%%%%%%%%%%%%%%$$*%$%%%%%%%%%%%%%%%%%%%%%%%%%%%%%%%%%%$2",
";$%%%%%%%%%%%%%%%%%%%%%%%%354455555554553&%%%%%%%%%%%%%%%%%%%%%%%%%%%%%%%%%%%%%%%%%%%%$%pmnp$$%%%%%%%%%%%%%%%%%%%%%%%%%%%%%%%%%>",
";%%%%%%%%%%%%%%%%%%%%%%%4NGHGHHGHGHHGHHGGDa%$$%%%%%%%%%%%%%%%%%%%%%%%%%%%%%%%%%%%%%%%$&xHHHGz*%%%%%%%%%%%%%%%%%%%%%%%%%%%%%%%%%:",
";%%%%%%%%%%%%%%%%%%%%%%*VGHHHHHHHGHHHHHHHHHe%%%%%%%%%%%%%%%%%%%%%%%%%%%%%%%%%%%%%%%%%*cGHHHHHz$$%%%%%%%%%%%%%%%%%%%%%%%%%%%%%%%;",
"-%%%%%%%%%%%%%%%%%%%%%%9HHHHHHHHHHHHHHHHHHHf%%%%%%%%%%%%%%%%%%%%%%%%%%%%%%%%%%%%%%%$@zHHHHHHHHz@%%%%%%%%%%%%%%%%%%%%%%%%%%%%%$$-",
"*%%%%%%%%%%%%%%%%%%%%%%qGHHHHHHHHHHHHHHHHHHf%%%%%%%%%%%%%%%%%%%%%%%%%%%%%%%%%%%%%%%*xGHHHHHHHHHg%%%%%%%%%%%%%%%%%%%%%%%%%%%%%%$;",
"%%%%%%%%%%%%%%%%%%%%%%%eGHHHHHHHHHHHHHHHHHHf%%%%%%%%%%%%%%%%%%%%%%%%%%%%%%%%%%%%%$&xHHHHHHHHHHHF;%%%%%%%%%%%%%%%%%%%%%%%%%%%%%%*",
"%%%%%%%%%%%%%%%%%%%%%%%eHHHHHHHHHHHHHHHHHHHf%%%%%%%%%%%%%%%%%%%%%%%%%%%%%%%%%%%%%%xGHHHHHHHHHHHH5*%%%%%%%%%%%%%%%%%%%%%%%%%%%%%*",
"%%%%%%%%%%%%%%%%%%%%%%%7HHHHHHHHHHHHHHHHHHHf$%%%%%%%%%%%%%%%%%%%%%%%%%%%%%%%%%%$$xHHHHHHHHHHHHHA=%%%%%%%%%%%%%%%%%%%%%%%%%%%%%%*",
"%%%%%%%%%%%%%%%%%%%%%%%3GHHHHHHHHHHHHHHHHHHf%%%%%%%%%%%%%%%%%%%%%%%%%%%%%%%%%%%$xGHHHHHHHHHHHHFe%%%%%%%%%%%%%%%%%%%%%%%%%%%%%%%%",
"*%%%%%%%%%%%%%%%%%%%%%%%zHHHHHHHHGHHHHHHHHA3%%%%%%%%%%%%%%%%%%%%%%%%%%%%%%%%%**zHHHHHHHHHHHHHFw*%%%%%%%%%%%%%%%%%%%%%%%%%%%%%%*;",
"-%%%%%%%%%%%%%%%%%%%%%%%%sMNCNVVCCBBNNVVNx3%$%%%%%%%%%%%%%%%%%%%%%%%%%%%%%%%%@zHHHHHHHHHHHHHFr%%%%%%%%%%%%%%%%%%%%%%%%%%%%%%%%%-",
";*%%%%%%%%%%%%%%%%%%%%%%$%$$%%%%%%%%%%$%%%@%%%%%%%%%%%%%%%%%%%%%%%%%%%%%%%%%*zHHHHHHHHHHHHHFw$%%%%%%%%%%%%%%%%%%%%%%%%%%%%%%%%%;",
"#%%%%%%%%%%%%%%%%%%%%%%%%%%%%%%%%%%%%%%%%%%%%%%%%%%%%%%%%%%%%%%%%%%%%%%%%%%*zHHHHHHHHHHHHHFw%$%%%%%%%%%%%%%%%%%%%%%%%%%%%%%%%%%-",
":%%%%%%%%%%%%%%%%%%%%%%%%%%%%%%%%%%%%%%%%%%%%%%%%%%%%%%%%%%%%%%%%%%%%%%%%%$zGHHHHHHHHHHHHFe%%%%%%%%%%%%%%%%%%%%%%%%%%%%%%%%%%%%:",
"-%%%%%%%%%%%%%%%%%%%%%%%%%%%%%%%%%%%%%%%%%%%%%%%%%%%%%%%%%%%%%%%%%%%%%%%%#zHHHHHHHHHHHHHFe%$%%%%%%%%%%%%%%%%%%%%%%%%%%%%%%%%%%*:",
"J%%%%%%%%%%%%%%%%%%%%%%%%%%%%%%%%%%%%%%%%%%%%%%%%%%%%%%%%%%%%%%%%%%%%%%%&zHHGHHHHHHHHHHFe%$%%%%%%%%%%%%%%%%%%%%%%%%%%%%%%%%%%%%J",
"J%%%%%%%%%%%%%%%%%%%%%%%%%%%%%%%%%%%%%%%%%%%%%%%%%%%%%%%%%%%%%%%%%%%%%%*xHHHHHHHHHHHHHFe%$%%%%%%%%%%%%%%%%%%%%%%%%%%%%%%%%%%%%%J",
"J*%%%%%%%%%%%%%%%%%%%%%%%%%%%%%%%%%%%%%%%%%%%%%%%%%%%%%%%%%%%%%%%%%%%%%zHHHHHHHHHHHHHFe%$$%%%%%%%%%%%%%%%%%%%%%%%%%%%%%%%%%%%%*J",
"J;%%%%%%%%%%%%%%%%%%%%%%%%%%%%%%%%%%%%%%%%%%%%%%%%%%%%%%%%%%%%%%%%%%$&zHHHHHHHHHHHHHDe$$%%%%%%%%%%%%%%%%%%%%%%%%%%%%%%%%%%%%%%;J",
"J&%%%%%%%%%%%%%%%%%%%%%%%%%%%%%@%%%%%%%%%%%%%%%%%%%%%%%%%%%%%%%%%%%%%cGHHHHHHHHHHHHFe$@%%%%%%%%%%%%%%%%%%%%%%%%%%%%%%%%%%%%%%%;J",
"J:%%%%%%%%%%%%%%%%%%%%%%%%*%%%%@%%%%%%%%%%$%%$%%%%%%%%%%%%$%%%%%%%$&xGHHHHHHHHHHHGDe%$%%$%%$%%%%%%$%$%$%%%%%%%%%%%%%%%%%%%%%%%-J",
"JJ%%%%%%%%%%%%%%%%%%%%%%&fnMMMMMMMMMMMMMMMMMMMMMMMMMMMMMMMcq%%%%%%$xHHHHHHHHHHHHHHAMMMMMMMMMMMMMMMMMnp*%%%%%%%%%%%%%%%%%%%%%%%JJ",
"JJ%%%%%%%%%%%%%%%%%%%%%*xHHHHHHHHHHHHHHHHHHHHHHHHHHHHHHHHHHHt%%%%$zHHHHHHHHHHHHHHHHHHHHHHHHHHHHHHHHHHHx*%%%%%%%%%%%%%%%%%%%%%$JJ",
"JJ-%%%%%%%%%%%%%%%%%%%%9GHHHHHHHHHHHHHHHHHHHHHHHHHHHHHHHHHHHB$%%$uHGHHHHHHHHHHHHHHHHHHHHHHHHHHHHHHHHHHG4$%%%%%%%%%%%%%%%%%%%%;JJ",
"JJ:%%%%%%%%%%%%%%%%%%%%tHHHHHHHHHHHHHHHHHHHHHHHHHHHHHHHHHHHHG;%%%xHHHHHHHHHHHHHHHHHHHHHHHHHHHHHHHHHHHHH5%%%%%%%%%%%%%%%%%%%%$+JJ",
"JJJ%%%%%%%%%%%%%%%%%%%%tHHHHHHHHHHHHHHHHHHHHHHHHHHHHHHHHHHHHG*%%%cHHHHHHHHHHHHHHHHHHHHHHHHHHHHHHHHHHHHH5%%$%%%%%%%%%%%%%%%%%$JJJ",
"JJJ&%%%%%%%%%%%%%%%%%%%tGHHHHHHHHHHHHHHHHHHHHHHHHHHHHHHHHHHHG;%%*vHHHHHHHHHHHHHHHHHHHHHHHHHHHHHHHHHHHHH5%%%%%%%%%%%%%%%%%%%%&JJJ",
"JJJ:%%%%%%%%%%%%%%%%%%%rHHHHHHHHHHHHHHHHHHHHHHHHHHHHHHHHHHHHG&%%%xHHHHHHHHHHHHHHHHHHHHHHHHHHHHHHHHHHHHH3%%%%%%%%%%%%%%%%%%%%:JJJ",
"JJJJ%%%%%%%%%%%%%%%%%%%rGHHHHHHHHHHHHHHHHHHHHHHHHHHHHHHHHHHHD&%%*zHHHHHHHHHHHHHHHHHHHHHHHHHHHHHHHHHHHHH3$%%%%%%%%%%%%%%%%%%%JJJJ",
"JJJJ-%%%%%%%%%%%%%%%%%%;DHHHHHHHHHHHHHHHHHHHHHHHHHHHHHHHHHHHz%%%$eHGHHHHHHHHHHHHHHHHHHHHHHHHHHHHHHHHHHA;%%%%%%%%%%%%%%%%%%%-JJJJ",
"JJJJ=%%%%%%%%%%%%%%%%%%%wZHHHHHHHHHHHHHHHHHHHHHHHHHHHHHHHHGb*%%%%%sDHHHHHHHHHHHHHHHHHHHHHHHHHHHHHHHHHZ0%%%%%%%%%%%%%%%%%%%%:JJJJ",
"JJJJJ$$%%%%%%%%%%%%%%%%%%-599999999999996677667699999999998$%%%%%%$;666766999999667676679999999976765&%%%%%%%%%%%%%%%%%%%$&JJJJJ",
"JJJJJ-%%%%%%%%%%%%%%%%%%%%$%%%%%%%%%%%%%%%%%%%%%%%%%%%%%%%$%%%%%%%%%%%%%%%%%%%%%%%%%%%%%%%%%%%%%%%%%%%%%%%%%%%%%%%%%%%%%%%;JJJJJ",
"JJJJJJ%%%%%%%%%%%%%%%%%%%%%%%%%%%%%%%%%%%%%%%%%%%%%%%%%%%%%$%%%%%%%%%%%%%%%%%%%%%%%%%%%%%%%%%%%%%%%%%%%%%%%%%%%%%%%%%%%%%%JJJJJJ",
"JJJJJJ&$%%%%%%%%%%%%%%%%%%%%%%%%%%%%%%%%%%%%%%%%%%%%%%%%%%%%%%%%%%%%%%%%%%%%%%%%%%%%%%%%%%%%%%%%%%%%%%%%%%%%%%%%%%%%%%%%%&JJJJJJ",
"JJJJJJJ%%%%%%%%%%%%%%%%%%%%%%%%%%%%%%%%%%%%%%%%%%%%%%%%%%%%%%%%%%%%%%%%%%%%%%%%%%%%%%%%%%%%%%%%%%%%%%%%%%%%%%%%%%%%%%%%%%JJJJJJJ",
"JJJJJJJ&%%%%%%%%%%%%%%%%%%%%%%%%%%%%%%%%%%%%%%%%%%%%%%%%%%%%%%%%%%%%%%%%%%%%%%%%%%%%%%%%%%%%%%%%%%%%%%%%%%%%%%%%%%%%%%%%-JJJJJJJ",
"JJJJJJJJ%%%%%%%%%%%%%%%%%%%%%%%%%%%%%%%%%%%%%%%%%%%%%%%%%%%%%%%%%%%%%%%%%%%%%%%%%%%%%%%%%%%%%%%%%%%%%%%%%%%%%%%%%%%%%%%%JJJJJJJJ",
"JJJJJJJJ-%%%%%%%%%%%%%%%%%%%%%%%%%%%%%%%%%%%%%%%%%%%%%%%%%%%%%%%%%%%%%%%%%%%%%%%%%%%%%%%%%%%%%%%%%%%%%%%%%%%%%%%%%%%%%%-JJJJJJJJ",
"JJJJJJJJJ*%%%%%%%%%%%%%%%%%%%%%%%%%%%%%%%%%%%%%%%%%%%%%%%%%%%%%%%%%%%%%%%%%%%%%%%%%%%%%%%%%%%%%%%%%%%%%%%%%%%%%%%%%%%$&JJJJJJJJJ",
"JJJJJJJJJ=%%%%%%%%%%%%%%%%%%%%%%%%%%%%%%%%%%%%%%%%%%%%%%%%%%%%%%%%%%%%%%%%%%%%%%%%%%%%%%%%%%%%%%%%%%%%%%%%%%%%%%%%%%%%:JJJJJJJJJ",
"JJJJJJJJJJ#$*%%%%%%%%%%%%%%%%%%%%%%%%%%%%%%%%%%%%%%%%%%%%%%%%%%%%%%%%%%%%%%%%%%%%%%%%%%%%%%%%%%%%%%%%%%%%%%%%%%%%%%%%-JJJJJJJJJJ",
"JJJJJJJJJJJ%%%%%%%%%%%%%%%%%%%%%%%%%%%%%%%%%%%%%%%%%%%%%%%%%%%%%%%%%%%%%%%%%%%%%%%%%%%%%%%%%%%%%%%%%%%%%%%%%%%%%%%%%%JJJJJJJJJJJ",
"JJJJJJJJJJJO$%%%%%%%%%%%%%%%%%%%%%%%%%%%%%%%%%%%%%%%%%%%%%%%%%%%%%%%%%%%%%%%%%%%%%%%%%%%%%%%%%%%%%%%%%%%%%%%%%%%%%%%:JJJJJJJJJJJ",
"JJJJJJJJJJJJ@%%%%%%%%%%%%%%%%%%%%%%%%%%%%%%%%%$%%%%%%%%%%%%%%%%%%%%%%%%%%%%%%%%%%%%%%%%%%%%%%%%%%%%%%%%%%%%%%%%%%%%&JJJJJJJJJJJJ",
"JJJJJJJJJJJJJ&%%%%%%%%%%%%%%%%%%%%%%%%%%%%%%%%%%%%%%%%%%%%%%%%%%%%%%%%%%%%%%%%%%%%%%%%%%%%%%%%%%%%%%%%%%%%%%%%%%%%$JJJJJJJJJJJJJ",
"JJJJJJJJJJJJJJ$%%%%%%%%%%%%%%%%%%%%%%%%%%%%%%%%%%%%%%%%%%%%%%%%%%%%%%%%%%%%%%%%%%%%%%%%%%%%%%%%%%%%%%%%%%%%%%%%%%&JJJJJJJJJJJJJJ",
"JJJJJJJJJJJJJJo%%%%%%%%%%%%%%%%%%%%%%%%%%%%%%%%%%%%%%%%%%%%%%%%%%%%%%%%%%%%%%%%%%%%%%%%%%%%%%%%%%%%%%%%%$%%%%%%%%OJJJJJJJJJJJJJJ",
"JJJJJJJJJJJJJJJ:*%%%%%%%%%%%%%%%%%%%%%%%%%%%%%%%%%%%%%%%%%%%%%%%%%%%%%%%%%%%%%%%%%%%%%%%%%%%%%%%%%%%%%%%%%%%%%%%OJJJJJJJJJJJJJJJ",
"JJJJJJJJJJJJJJJJ#%%%%%%%%%%%%%%%%%%%%%%%%%%%%%%%%%%%%%%%%%%%%%%%%%%%%%%%%%%%%%%%%%%%%%%%%%%%%%%%%%%%%%%%%%%%%%%-JJJJJJJJJJJJJJJJ",
"JJJJJJJJJJJJJJJJJ&%%%%%%%%%%%%%%%%%%%%%%%%%%%%%%%%%%%%%%%%%%%%%%%%%%%%%%%%%%%%%%%%%%%%%%%%%%%%%%%%%%%%%%%%%%@%-JJJJJJJJJJJJJJJJJ",
"JJJJJJJJJJJJJJJJJJ&%%%%%%%%%%%%%%%%%%%%%%%%%%%%%%%%%%%%%%%%%%%%%%%%%%%%%%%%%%%%%%%%%%%%%%%%%%%%%%%%%%%%%%%%%%&JJJJJJJJJJJJJJJJJJ",
"JJJJJJJJJJJJJJJJJJJ-$%%%%%%%%%%%%%%%%%%$%%%%%%%%%%%%%%%%%%%%%%%%%%%%%%%%%%%%%%%%%%%%%%%%%%%%%%%%%%%%%%%%%%%%&JJJJJJJJJJJJJJJJJJJ",
"JJJJJJJJJJJJJJJJJJJJ&%%%%%%%%%%%%%%%%%%%%%%%%%%%%%%%%%%%%%%%%%%%%%%%%%%%%%%%%%%%%%%%%%%%%%%%%%%%%%%%%%%%%%%&JJJJJJJJJJJJJJJJJJJJ",
"JJJJJJJJJJJJJJJJJJJJJ&*%%%%%%%%%%%%%%%%%%%%%%%%%%%%%%%%%%%%%%%%%%%%%%%%%%%%%%%%%%%%%%%%%%%%%%%%%%%%%%%%%%%-JJJJJJJJJJJJJJJJJJJJJ",
"JJJJJJJJJJJJJJJJJJJJJJ&%%%%%%%%%%%%%%%%%%%%%%%%%%%%%%%%%%%%%%%%%%%%%%%%%%%%%%%%%%%%%%%%%%%%%%%%%%%%%%%%%%oJJJJJJJJJJJJJJJJJJJJJJ",
"JJJJJJJJJJJJJJJJJJJJJJJo@%%%%%%%%%%%%%%%%%%%%%%%%%%%%%%%%%%%%%%%%%%%%%%%%%%%%%%%%%%%%%%%%%%%%%%%%%%%%%%$oJJJJJJJJJJJJJJJJJJJJJJJ",
"JJJJJJJJJJJJJJJJJJJJJJJJJ&%%%%%%%%%%%%%%%%%%%%%%%%%%%%%%%%%%%%%%%%%%%%%%%%%%%%%%%%%%%%%%%%%%%%%%%%%%%%&JJJJJJJJJJJJJJJJJJJJJJJJJ",
"JJJJJJJJJJJJJJJJJJJJJJJJJJ&%%%%%%%%%%%%%%%%%%%%%%%%%%%%%%%%%%%$%%%%%%%%%%%%%%%%%%%%%%%%%%%%%%%%%%%%%%&JJJJJJJJJJJJJJJJJJJJJJJJJJ",
"JJJJJJJJJJJJJJJJJJJJJJJJJJJ &%%%%%%%%%%%%%%%%%%%%%%%%%%%%%%%%%%%%%%%%%%%%%%%%%%%%%%%%%%%%%%%%%%%%%%*#JJJJJJJJJJJJJJJJJJJJJJJJJJJ",
"JJJJJJJJJJJJJJJJJJJJJJJJJJJJJ@%*%%%%%%%%%%%%%%%%%%%%%%%%%%%%%%%%%%%%%%%%%%%%%%%%%%%%%%%%%%%%%%%%&%@JJJJJJJJJJJJJJJJJJJJJJJJJJJJJ",
"JJJJJJJJJJJJJJJJJJJJJJJJJJJJJJ#&%%%%%%%%%%%%%%%%%%%%%%%%%%%%%%$%%%%%%%%%%%%%%%%%%%%%%%%%%%%%%%%%$oJJJJJJJJJJJJJJJJJJJJJJJJJJJJJJ",
"JJJJJJJJJJJJJJJJJJJJJJJJJJJJJJJJ#%%%%%%%%%%%%%%%%%%%%%%%%%%%%%%%%%%%%%%%%%%%%%%%%%%%%%%%%%%%%%$#JJJJJJJJJJJJJJJJJJJJJJJJJJJJJJJJ",
"JJJJJJJJJJJJJJJJJJJJJJJJJJJJJJJJJJ#$%%%%%%%%%%%%%%%%%%%%%%%%%%%%%%%%%%%%%%%%%%%%%%%%%%%%%%%%%&JJJJJJJJJJJJJJJJJJJJJJJJJJJJJJJJJJ",
"JJJJJJJJJJJJJJJJJJJJJJJJJJJJJJJJJJJJ&%%%%%%%%%%%%%%%%%%%%%%%%%%%%%%%%%%%%%%%%%%%%%%%%%%%%%%&JJJJJJJJJJJJJJJJJJJJJJJJJJJJJJJJJJJJ",
"JJJJJJJJJJJJJJJJJJJJJJJJJJJJJJJJJJJJJJ#$%%%%%%%%%%%%%%%%%%%%%%%%%%%%%%%%%%%%%%%%%%%%%%%$&#JJJJJJJJJJJJJJJJJJJJJJJJJJJJJJJJJJJJJJ",
"JJJJJJJJJJJJJJJJJJJJJJJJJJJJJJJJJJJJJJJJ#@%$%%%%%%$%%%%%%%%%%%%%%%%%%%%%%%%%%%%%%$$%%%@#JJJJJJJJJJJJJJJJJJJJJJJJJJJJJJJJJJJJJJJJ",
"JJJJJJJJJJJJJJJJJJJJJJJJJJJJJJJJJJJJJJJJJJJ&@%*%%%%%%%%%%%%%%%%%%%%%%%%%%%%%%%%%%%%*.JJJJJJJJJJJJJJJJJJJJJJJJJJJJJJJJJJJJJJJJJJJ",
"JJJJJJJJJJJJJJJJJJJJJJJJJJJJJJJJJJJJJJJJJJJJJJX@$%%%%%%%%%%%%%%%%%%%%%%%%%%%%%%%@XJJJJJJJJJJJJJJJJJJJJJJJJJJJJJJJJJJJJJJJJJJJJJJ",
"JJJJJJJJJJJJJJJJJJJJJJJJJJJJJJJJJJJJJJJJJJJJJJJJJJX$*$$$%%%%%%%%%%%%$%$$$%$&&&JJJJJJJJJJJJJJJJJJJJJJJJJJJJJJJJJJJJJJJJJJJJJJJJJJ",
"JJJJJJJJJJJJJJJJJJJJJJJJJJJJJJJJJJJJJJJJJJJJJJJJJJJJJJJJ  X@@@%%%%@%@X&&JJJJJJJJJJJJJJJJJJJJJJJJJJJJJJJJJJJJJJJJJJJJJJJJJJJJJJJJ"
};
